<?xml version="1.0" standalone="no"?>
<!DOCTYPE svg PUBLIC "-//W3C//DTD SVG 20010904//EN"
 "http://www.w3.org/TR/2001/REC-SVG-20010904/DTD/svg10.dtd">
<svg version="1.0" xmlns="http://www.w3.org/2000/svg"
 width="185.000000pt" height="185.000000pt" viewBox="0 0 185.000000 185.000000"
 preserveAspectRatio="xMidYMid meet">
<metadata>
Created by potrace 1.14, written by Peter Selinger 2001-2017
</metadata>
<g transform="translate(0.000000,185.000000) scale(0.100000,-0.100000)"
fill="#000000" stroke="none">
<path d="M150 1789 c-40 -16 -80 -60 -89 -99 -5 -19 -9 -196 -9 -393 0 -350 1
-359 22 -400 28 -52 73 -79 140 -83 28 -1 54 -3 57 -3 4 -1 8 -37 11 -80 4
-63 10 -87 29 -115 29 -43 76 -67 138 -71 25 -2 49 -4 52 -4 3 -1 6 -81 6
-179 0 -160 2 -181 21 -219 21 -41 53 -69 103 -90 17 -7 186 -11 530 -11 486
0 506 1 548 21 26 12 53 36 69 60 l27 41 0 531 0 531 -25 37 c-13 20 -43 46
-65 59 -37 21 -52 22 -220 23 l-180 0 -5 60 c-6 66 -16 88 -53 123 -35 33 -84
48 -153 46 l-59 -1 -1 51 c0 61 -27 121 -67 150 -27 20 -42 21 -415 23 -243 1
-396 -2 -412 -8z"/>
</g>
</svg>
